<svg width="250" height="250" viewBox="0 0 250 250" fill="none" xmlns="http://www.w3.org/2000/svg">
<path d="M124.974 0C56.2383 0 0 56.25 0 125C0 193.75 56.2383 250 124.974 250C169.444 250 208.707 226.458 230.837 191.198C231.261 190.528 231.45 189.736 231.375 188.947C231.299 188.158 230.965 187.416 230.422 186.838C229.88 186.26 229.161 185.878 228.379 185.753C227.596 185.628 226.794 185.766 226.099 186.146C223.052 187.935 219.844 189.434 216.517 190.625C197.355 197.188 186.784 197.448 173.766 196.875C159.238 196.25 141.533 191.25 129.088 183.854C116.642 176.458 106.436 165.833 100.916 156.615C95.3968 147.396 92.0641 135.833 93.5742 121.042C95.0844 105.937 108.884 93.6458 125.026 93.6458C142.47 93.6458 156.686 107.5 156.686 124.948C156.686 133.802 152.468 141.458 147.053 147.604C145.855 148.698 143.095 152.656 150.073 158.021C158.352 164.375 176.942 167.396 191.679 166.667C206.415 165.938 222.454 160.104 233.441 148.542C242.189 139.323 250 124.531 250 108.229C249.948 43.0729 189.544 0 124.974 0Z" fill="#EBF73B"/>
</svg>
